<svg width="33" height="33" viewBox="0 0 33 33" fill="none" xmlns="http://www.w3.org/2000/svg">
<rect x="0.587891" y="0.85791" width="31" height="31" rx="9.5" stroke="white"/>
<path d="M18.2322 10.3623H16.8415C16.4924 10.3401 16.1432 10.402 15.8174 10.5438C15.4915 10.6856 15.1967 10.9039 14.9528 11.1841C14.7089 11.4643 14.5216 11.7998 14.4036 12.1679C14.2856 12.536 14.2396 12.9281 14.2687 13.3178V14.679H12.8697C12.8118 14.679 12.7563 14.7047 12.7153 14.7505C12.6744 14.7963 12.6514 14.8584 12.6514 14.9232V16.8917C12.6516 16.9564 12.6746 17.0184 12.7155 17.0642C12.7564 17.1099 12.8119 17.1357 12.8697 17.1359H14.2687V22.1137C14.2689 22.1785 14.2921 22.2406 14.3331 22.2864C14.3742 22.3322 14.4298 22.3579 14.4878 22.3579H16.3117C16.3696 22.3579 16.4252 22.3322 16.4663 22.2864C16.5073 22.2406 16.5305 22.1785 16.5307 22.1137V17.1359H18.1654C18.2233 17.1359 18.2789 17.1102 18.3198 17.0644C18.3608 17.0186 18.3838 16.9565 18.3838 16.8917V14.9177C18.3835 14.853 18.3606 14.791 18.3198 14.7451C18.2994 14.7223 18.2753 14.7042 18.2487 14.692C18.222 14.6797 18.1935 14.6734 18.1647 14.6735H16.5293V13.5193C16.5293 12.9647 16.6475 12.6832 17.2942 12.6832H18.2315C18.2894 12.6832 18.3449 12.6575 18.3859 12.6117C18.4268 12.5659 18.4498 12.5037 18.4498 12.439V10.6073C18.4498 10.5426 18.4269 10.4805 18.3862 10.4346C18.3454 10.3887 18.29 10.3627 18.2322 10.3623Z" fill="white"/>
</svg>
