<svg width="33" height="33" viewBox="0 0 33 33" fill="none" xmlns="http://www.w3.org/2000/svg">
<rect x="0.549316" y="0.85791" width="31" height="31" rx="9.5" stroke="white"/>
<path d="M21.7221 13.4965L21.7222 13.5074L21.7228 13.5183C21.7638 14.2437 21.764 14.4702 21.7655 16.3624L21.7655 16.3688C21.7655 16.3689 21.7655 16.369 21.7655 16.3692C21.7655 18.2614 21.7558 18.4902 21.724 19.2267L21.7238 19.2267L21.7236 19.2386C21.7134 19.7647 21.6179 20.2821 21.4402 20.7725C21.2899 21.1721 21.0615 21.5339 20.7703 21.8352C20.4791 22.1365 20.1317 22.3708 19.7506 22.5242C19.2809 22.7063 18.7852 22.8043 18.2845 22.8146L18.2744 22.8148L18.2644 22.8154C17.566 22.8577 17.3469 22.8579 15.5119 22.8579C13.684 22.8579 13.4637 22.8479 12.7522 22.815L12.7522 22.8149L12.7462 22.8147C12.2435 22.7976 11.7471 22.6919 11.2781 22.5018L11.2762 22.501C10.8939 22.3479 10.5455 22.1135 10.2536 21.8118C9.96235 21.5106 9.73388 21.1489 9.58371 20.7494C9.40589 20.2581 9.31039 19.7405 9.30021 19.2153L9.30003 19.206L9.29951 19.1967C9.25845 18.4714 9.2583 18.2439 9.2583 16.3455C9.2583 14.4537 9.26802 14.2249 9.29984 13.4876L9.29999 13.4876L9.30022 13.4752C9.3098 12.9512 9.40574 12.4331 9.58367 11.9433C9.73358 11.5434 9.96191 11.1815 10.2532 10.8802C10.5443 10.5789 10.8918 10.3448 11.273 10.1917C11.7427 10.0096 12.2384 9.9112 12.7391 9.90048L12.7486 9.90028L12.7582 9.89971C13.4569 9.85807 13.6763 9.85791 15.5112 9.85791C17.3395 9.85791 17.5596 9.8672 18.2701 9.90006L18.27 9.90022L18.2825 9.90049C18.7835 9.91113 19.2793 10.0095 19.7492 10.1917C20.1304 10.3449 20.4779 10.5791 20.769 10.8803C21.0603 11.1817 21.2887 11.5437 21.4387 11.9435C21.6193 12.4399 21.7152 12.9654 21.7221 13.4965ZM18.1808 11.682L18.5404 12.0295L18.1808 11.682C18.0602 11.8068 17.9654 11.9541 17.901 12.1149C17.8366 12.2758 17.8037 12.4476 17.8037 12.6208C17.8037 12.7749 17.8296 12.9242 17.8775 13.0636C17.1979 12.5418 16.3678 12.2535 15.5067 12.2535C13.2989 12.2535 11.5391 14.0995 11.5391 16.3416C11.5391 18.5838 13.2989 20.4297 15.5067 20.4297C16.5645 20.4297 17.5755 19.9947 18.3181 19.2262C19.0602 18.4584 19.4742 17.4204 19.4742 16.3416C19.4742 15.451 19.192 14.5882 18.676 13.8822C18.8116 13.9309 18.9582 13.9575 19.1122 13.9575C19.8509 13.9575 20.4201 13.343 20.4201 12.6208C20.4201 12.4476 20.3871 12.2758 20.3227 12.1149C20.2583 11.9541 20.1635 11.8068 20.0429 11.682C19.9222 11.5571 19.778 11.4571 19.6181 11.3886C19.4581 11.32 19.2861 11.2845 19.1119 11.2845C18.9376 11.2845 18.7656 11.32 18.6056 11.3886C18.4457 11.4571 18.3015 11.5571 18.1808 11.682Z" fill="white" stroke="white"/>
<path d="M17.2588 16.3415C17.2588 17.3688 16.4582 18.1722 15.5064 18.1722C14.5545 18.1722 13.7539 17.3688 13.7539 16.3415C13.7539 15.3142 14.5545 14.5107 15.5064 14.5107C16.4582 14.5107 17.2588 15.3142 17.2588 16.3415Z" fill="white" stroke="white"/>
</svg>
