<svg width="33" height="33" viewBox="0 0 33 33" fill="none" xmlns="http://www.w3.org/2000/svg">
<rect x="1.22852" y="0.85791" width="31" height="31" rx="9.5" stroke="white"/>
<path d="M12.0495 10.3579L12.0491 10.8579C11.9343 10.8578 11.8202 10.8811 11.7132 10.9269C11.6061 10.9727 11.5076 11.0404 11.4239 11.1269C11.3401 11.2135 11.2728 11.3172 11.2266 11.4326C11.1803 11.5479 11.1563 11.6721 11.1562 11.7979L12.0495 10.3579ZM12.0495 10.3579L12.0495 10.8579C12.1642 10.8579 12.2782 10.8813 12.3852 10.9272C12.4922 10.973 12.5906 11.0408 12.6742 11.1274C12.7578 11.214 12.8251 11.3178 12.8712 11.4332C12.9173 11.5486 12.9412 11.6728 12.9411 11.7986V11.799C12.9411 12.3407 12.5187 12.7543 12.0479 12.7543C11.5788 12.7543 11.1563 12.3416 11.1562 11.7981L12.0495 10.3579ZM16.6851 15.9383H16.9911L17.1303 15.6657C17.3815 15.1741 17.8943 14.6761 18.8452 14.6761C19.9349 14.6761 20.4693 15.0287 20.7723 15.5211C21.1095 16.0692 21.226 16.8897 21.226 17.9572V21.8579H19.8239V18.4579V18.4474C19.8239 18.0047 19.8239 17.3823 19.6279 16.87C19.5239 16.5983 19.3556 16.3297 19.0817 16.132C18.8054 15.9326 18.4653 15.8366 18.074 15.8366C17.6948 15.8366 17.36 15.9135 17.0801 16.0834C16.7969 16.2554 16.6092 16.4989 16.4878 16.7644C16.2602 17.2621 16.2483 17.886 16.2483 18.3919V21.8579H14.8462V14.8457H16.1513V15.4383V15.9383H16.6513H16.6851ZM12.7513 21.8579H11.3476V14.8452H12.7513V21.8579Z" fill="white" stroke="white"/>
</svg>
