<svg width="33" height="33" viewBox="0 0 33 33" fill="none" xmlns="http://www.w3.org/2000/svg">
<rect x="0.408203" y="0.35791" width="32" height="32" rx="10" stroke="white"/>
<path d="M22.0759 12.6472C21.5906 12.8703 21.0756 13.0169 20.5483 13.0821C21.1039 12.7371 21.52 12.1956 21.7195 11.5577C21.196 11.8793 20.623 12.1053 20.0254 12.2256C19.6604 11.8236 19.187 11.5444 18.6667 11.4241C18.1464 11.3039 17.6032 11.3482 17.1075 11.5513C16.6118 11.7544 16.1865 12.1069 15.8868 12.5631C15.5871 13.0194 15.4268 13.5583 15.4267 14.1099C15.427 14.3209 15.4498 14.5312 15.4948 14.737C14.4368 14.6825 13.4016 14.3983 12.4566 13.9028C11.5116 13.4074 10.6779 12.7118 10.0096 11.8612C9.66915 12.4669 9.56469 13.1841 9.71755 13.8667C9.8704 14.5493 10.2691 15.1459 10.8323 15.5348C10.4105 15.5222 9.99784 15.4043 9.62952 15.1912V15.2246C9.62981 15.8599 9.84188 16.4756 10.2299 16.9679C10.618 17.4601 11.1583 17.7988 11.7596 17.9267C11.5312 17.9889 11.2959 18.0204 11.0596 18.0202C10.8912 18.0205 10.7231 18.0043 10.5576 17.972C10.7282 18.5186 11.0593 18.9965 11.5047 19.3393C11.9501 19.6821 12.4877 19.8726 13.0427 19.8845C12.0994 20.6483 10.9356 21.0622 9.73782 21.06C9.5267 21.0598 9.31575 21.0474 9.10596 21.0229C10.2494 21.7806 11.5687 22.206 12.9257 22.2545C14.2826 22.303 15.6272 21.9728 16.8184 21.2985C18.0096 20.6243 19.0036 19.6308 19.696 18.4223C20.3885 17.2138 20.754 15.8347 20.7541 14.4298L20.7462 14.0736C21.2688 13.6849 21.7195 13.2019 22.0767 12.6479L22.0759 12.6472Z" fill="white" stroke="white"/>
</svg>
